# xmcd
#
# Track frame offsets:
#	150
#	18131
#	36167
#	56166
#	70335
#	89982
#	106062
#	121669
#	140125
#	162268
#	176633
#	195985
#
# Disc length: 2837 seconds
#
# Revision: 1
# Processed by: cddbd v1.5.2PL0 Copyright (c) Steve Scherf et al.
# Submitted via: audiograbber 1.83.01
#
DISCID=a40b130c
DTITLE=Paul Thorn - A Long Way From Tupelo 
DYEAR=2008
DGENRE=
TTITLE0=Lucky Seven Ranch
TTITLE1=Everybody Wishes
TTITLE2=A Woman To Love
TTITLE3=I'm Still Here
TTITLE4=Long Way From Tupelo
TTITLE5=Crutches
TTITLE6=It Don't Get Any Better Than This
TTITLE7=All About People
TTITLE8=Burning Blue
TTITLE9=What Have You Done To Lift Somebody Up
TTITLE10=Starvin' For Your Kisses
TTITLE11=When The Long Road Ends
EXTD=
EXTT0=
EXTT1=
EXTT2=
EXTT3=
EXTT4=
EXTT5=
EXTT6=
EXTT7=
EXTT8=
EXTT9=
EXTT10=
EXTT11=
PLAYORDER=
